<?xml version="1.0" encoding="UTF-8" standalone="no"?>
<!DOCTYPE svg PUBLIC "-//W3C//DTD SVG 1.1//EN" "http://www.w3.org/Graphics/SVG/1.1/DTD/svg11.dtd">
<svg width="100%" height="100%" viewBox="0 0 2143 1453" version="1.1" xmlns="http://www.w3.org/2000/svg" xmlns:xlink="http://www.w3.org/1999/xlink" xml:space="preserve" xmlns:serif="http://www.serif.com/" style="fill-rule:evenodd;clip-rule:evenodd;stroke-linecap:round;stroke-linejoin:round;stroke-miterlimit:1.5;">
    <g transform="matrix(1,0,0,1,-858.616,-299.606)">
        <g transform="matrix(0.965625,0,0,0.965625,66.3361,35.2637)">
            <path d="M1042.99,273.752L2816.98,273.752C3311.57,348.483 2832.19,1344.36 2788.2,1501.93C2783.71,1518 2759.91,1546.04 2759.91,1546.04L2722.7,1568.55L2692.05,1644.61C2629.97,1680 2553.17,1721.41 2480.23,1738.58C2406.89,1755.84 2341.44,1757.94 2320.17,1747.69C2320.17,1747.69 2261.15,1727.03 2230.1,1702.08L2169.1,1748.32C2092.85,1767.31 2015.25,1776.61 1930.21,1777.98C1845.02,1776.61 1768.34,1767.31 1691.96,1748.32L1630.86,1702.08C1599.75,1727.03 1540.64,1747.69 1540.64,1747.69C1519.33,1757.94 1453.77,1755.84 1380.31,1738.58C1307.24,1721.41 1230.32,1680 1168.13,1644.61L1137.43,1568.55L1100.16,1546.04C1100.16,1546.04 1076.32,1518 1071.82,1501.93C1027.76,1344.36 547.574,348.483 1042.99,273.752Z"/>
        </g>
        <path d="M1930.16,1692.11C1854.7,1690.89 1786.77,1682.66 1719.12,1665.83L1664.99,1624.87C1637.44,1646.98 1585.07,1665.28 1585.07,1665.28C1566.19,1674.36 1508.12,1672.49 1443.05,1657.2C1378.32,1642 1310.18,1605.31 1255.1,1573.97L1227.9,1506.59L1194.88,1486.65C1194.88,1486.65 1173.76,1461.81 1169.78,1447.58C1130.74,1308 705.386,425.821 1144.24,359.623C1144.24,359.623 1162.65,358.688 1186.74,377.624C1226.63,408.986 1347.96,536.572 1346.88,534.413L1475.78,649.678C1475.78,649.678 1508.19,689.757 1597.42,692.041C1682.53,694.219 1943.34,691.415 1943.34,691.415C1943.34,691.415 2178.31,694.219 2263.27,692.041C2352.35,689.757 2384.7,649.678 2384.7,649.678L2513.39,534.413C2512.31,536.572 2633.44,408.986 2673.26,377.624C2697.31,358.688 2715.69,359.623 2715.69,359.623C3153.81,425.821 2729.16,1308 2690.19,1447.58C2686.22,1461.81 2665.14,1486.65 2665.14,1486.65L2632.17,1506.59L2605.02,1573.97C2550.03,1605.31 2482,1642 2417.38,1657.2C2352.42,1672.49 2294.44,1674.36 2275.6,1665.28C2275.6,1665.28 2223.32,1646.98 2195.81,1624.87L2141.78,1665.83C2074.23,1682.66 2005.49,1690.89 1930.16,1692.11ZM1093.27,784.816C1063.57,784.816 1050.32,805.727 1050.32,834.597C1050.32,863.466 1083.02,890.948 1112.73,890.948C1142.44,890.948 1150.63,871.553 1150.63,842.683C1150.63,813.813 1122.98,784.816 1093.27,784.816ZM1181.63,645.707C1148.5,645.707 1128.28,665.851 1128.28,696.142C1128.28,726.432 1151.54,755.674 1184.66,755.674C1217.78,755.674 1238.81,739.37 1238.81,709.08C1238.81,678.789 1214.75,645.707 1181.63,645.707ZM2291.72,1310.96C2275.41,1489.16 2415.12,1501.18 2476.57,1489.21C2561.66,1472.63 2712.37,1310.19 2600.61,1157.39C2414.77,1174.3 2319.19,1256.13 2291.72,1310.96ZM1758.19,1543.39C1965.01,1531.55 2058.55,1542.57 2088.86,1545.37C2120.94,1548.33 2117.49,1542.9 2117.49,1542.9C2063.35,1496.6 1937.86,1469.15 1856.9,1464.92C1765.68,1460.15 1725.61,1471.83 1719.69,1509.34C1713.77,1546.85 1758.19,1543.39 1758.19,1543.39ZM1334.13,760.071C1298.18,760.071 1283.6,788.128 1283.6,818.309C1283.6,848.491 1323.05,875.363 1359.01,875.363C1394.97,875.363 1406.79,848.886 1406.79,818.704C1406.79,788.523 1370.09,760.071 1334.13,760.071ZM2617.12,982.812C2622.24,982.367 2625.74,978.683 2627.85,972.226L2652.43,861.973C2653.55,860.073 2655.06,859.028 2656.89,858.668L2767.26,860.638C2774.13,860.696 2779.94,856.423 2784.43,846.827L2798.55,786.516C2798.48,777.217 2795.03,770.881 2786.39,769.102L2683.49,760.737C2681.06,760.266 2679.93,758.702 2680.12,756.046L2706.16,655.096C2706.46,645.605 2702.31,638.629 2692.79,634.689L2623.13,626.479C2615.83,628.532 2610.24,633.075 2607.64,641.96L2579.66,747.809C2578.29,749.912 2576.25,750.512 2573.79,750.155L2455.81,743.118C2447.21,742.241 2441.01,744.455 2438.22,751.093L2416.87,825.919C2415.05,838.997 2419.83,845.479 2428.6,847.967L2547.54,854.018C2549.63,855.415 2550.15,857.242 2549.23,859.46L2522.78,955.678C2523.62,967.969 2529.37,976.709 2539.81,982.062L2617.12,982.812ZM1577.17,1310.96C1549.7,1256.13 1454.11,1174.3 1268.28,1157.39C1156.52,1310.19 1307.22,1472.63 1392.31,1489.21C1453.76,1501.18 1593.47,1489.16 1577.17,1310.96ZM1240.71,901.177C1208.16,901.177 1191.11,917.394 1191.11,948.311C1191.11,979.228 1224.94,1009.76 1257.5,1009.76C1290.05,1009.76 1303.64,997.983 1303.64,967.066C1303.64,936.149 1273.27,901.177 1240.71,901.177Z" style="fill:white;stroke:white;stroke-width:1px;"/>
        <g transform="matrix(0.965625,0,0,0.965625,66.3361,35.2637)">
            <path d="M2755.22,306.211C2763.32,298.178 2774.33,292.671 2782.09,285.129C2802.59,273.02 2816.98,273.752 2816.98,273.752C3311.57,348.483 2832.19,1344.36 2788.2,1501.93C2783.71,1518 2759.91,1546.04 2759.91,1546.04L2722.7,1568.55L2692.05,1644.61C2629.97,1680 2553.17,1721.41 2480.23,1738.58C2406.89,1755.84 2341.44,1757.94 2320.17,1747.69C2320.17,1747.69 2261.15,1727.03 2230.1,1702.08L2169.1,1748.32C2092.85,1767.31 2015.25,1776.61 1930.21,1777.98C1845.02,1776.61 1768.34,1767.31 1691.96,1748.32L1630.86,1702.08C1599.75,1727.03 1540.64,1747.69 1540.64,1747.69C1519.33,1757.94 1453.77,1755.84 1380.31,1738.58C1307.24,1721.41 1230.32,1680 1168.13,1644.61L1137.43,1568.55L1100.16,1546.04C1100.16,1546.04 1076.32,1518 1071.82,1501.93C1027.76,1344.36 547.574,348.483 1042.99,273.752C1042.99,273.752 1057.6,273.011 1078.34,285.367C1086.11,292.901 1094.13,296.808 1102.23,304.827C1086.59,297.389 1076.17,301.893 1076.17,301.893C599.291,373.827 1061.51,1332.44 1103.93,1484.12C1108.25,1499.58 1131.2,1526.58 1131.2,1526.58L1167.08,1548.24L1196.63,1621.46C1256.49,1655.52 1330.54,1695.38 1400.87,1711.91C1471.58,1728.52 1534.69,1730.55 1555.2,1720.69C1555.2,1720.69 1612.1,1700.8 1642.04,1676.78L1700.86,1721.29C1774.38,1739.57 1848.19,1748.52 1930.19,1749.84C2012.05,1748.52 2086.75,1739.57 2160.15,1721.29L2218.86,1676.78C2248.75,1700.8 2305.56,1720.69 2305.56,1720.69C2326.04,1730.55 2389.04,1728.52 2459.63,1711.91C2529.85,1695.38 2603.77,1655.52 2663.53,1621.46L2693.03,1548.24L2728.85,1526.58C2728.85,1526.58 2751.76,1499.58 2756.08,1484.12C2798.43,1332.44 3259.87,373.827 2783.78,301.893C2783.78,301.893 2770.59,298.988 2755.22,306.211Z" style="fill:rgb(114,114,114);"/>
        </g>
        <g transform="matrix(7.40658,0,0,7.89057,-6852.96,-4137.31)">
            <g>
                <g>
                    <path d="M1086.56,568.805C1094.58,568.68 1102.6,568.555 1110.62,568.43C1114.72,568.351 1118.82,569.146 1122.46,571.085C1126.06,573.002 1129.01,575.95 1131.34,579.261C1136.55,586.632 1141.74,594.012 1146.89,601.418C1147.66,602.514 1149.2,604.714 1148.24,606.128C1147.3,607.499 1144.91,607.461 1143.48,607.458C1138.83,607.421 1134.18,607.384 1129.54,607.347C1115.21,594.5 1100.88,581.653 1086.56,568.805ZM1102.32,575.577C1111.89,584.966 1121.45,594.359 1131,603.764C1134.76,603.745 1138.53,603.725 1142.29,603.706C1142.72,603.704 1142.76,603.426 1142.52,603.123C1135.46,594.247 1128.36,585.402 1121.25,576.567C1120.81,576.019 1120.14,575.582 1119.42,575.582C1113.72,575.58 1108.02,575.579 1102.32,575.577Z" style="fill:white;"/>
                    <path d="M1157.43,607.18C1150.2,594.338 1142.79,581.595 1135.36,568.87C1145.74,568.884 1156.13,568.898 1166.52,568.911C1167.08,571.241 1167.64,573.571 1168.2,575.901C1161.31,575.9 1154.43,575.899 1147.54,575.897C1149.6,580.123 1151.64,584.352 1153.67,588.587C1159.11,588.576 1164.55,588.564 1169.99,588.553C1170.41,590.266 1170.84,591.98 1171.26,593.694C1166.22,593.71 1161.18,593.726 1156.14,593.741C1157.68,596.966 1159.21,600.195 1160.73,603.43C1165.42,603.406 1170.12,603.381 1174.82,603.357C1175.08,604.594 1175.35,605.832 1175.6,607.07C1169.55,607.107 1163.49,607.143 1157.43,607.18Z" style="fill:white;"/>
                    <path d="M1190.08,607.08C1188.36,607.058 1186.65,607.036 1184.93,607.014C1180.89,594.054 1176,581.369 1170.6,568.917C1173.45,568.92 1176.3,568.924 1179.15,568.928C1182.93,580.221 1186.26,591.671 1188.9,603.284C1189.61,603.28 1190.31,603.277 1191.02,603.273C1191.33,603.271 1191.56,603.07 1191.62,602.765C1195.94,591.371 1200.55,580.088 1205.52,568.963C1208.21,568.966 1210.9,568.97 1213.59,568.974C1207.56,580.011 1201.88,591.234 1196.48,602.595C1196.02,603.587 1195.53,604.579 1194.87,605.458C1194.42,606.057 1193.8,606.519 1193.08,606.739C1192.11,607.037 1191.08,607.074 1190.08,607.08Z" style="fill:white;"/>
                    <path d="M1223.99,595.288C1218.74,595.307 1213.48,595.325 1208.23,595.344C1208.73,593.846 1209.22,592.348 1209.71,590.849C1215.34,590.835 1220.97,590.82 1226.59,590.806C1225.73,592.301 1224.86,593.795 1223.99,595.288Z" style="fill:white;"/>
                    <path d="M1228.39,607.039C1227.09,607.047 1224.87,607.1 1224.01,605.839C1223.15,604.582 1224.42,602.65 1225.1,601.645C1232.36,590.81 1239.55,579.921 1246.71,569.017C1249.6,569.021 1252.48,569.025 1255.37,569.029C1246.85,580.307 1238.32,591.572 1229.71,602.787C1229.53,603.031 1229.56,603.25 1229.9,603.248C1233.74,603.228 1237.58,603.208 1241.42,603.188C1241.8,603.186 1242.16,602.985 1242.42,602.721C1253.53,591.513 1264.63,580.287 1275.71,569.056C1278.6,569.06 1281.49,569.063 1284.37,569.067C1272.62,579.887 1260.86,590.707 1249.11,601.527C1247.25,603.238 1245.15,604.764 1242.8,605.73C1240.73,606.582 1238.53,606.977 1236.29,606.991C1233.66,607.007 1231.02,607.023 1228.39,607.039Z" style="fill:white;"/>
                </g>
            </g>
        </g>
    </g>
</svg>
