<?xml version="1.0" encoding="UTF-8" standalone="no"?>
<!DOCTYPE svg PUBLIC "-//W3C//DTD SVG 1.1//EN" "http://www.w3.org/Graphics/SVG/1.1/DTD/svg11.dtd">
<svg width="100%" height="100%" viewBox="0 0 2143 1459" version="1.1" xmlns="http://www.w3.org/2000/svg" xmlns:xlink="http://www.w3.org/1999/xlink" xml:space="preserve" xmlns:serif="http://www.serif.com/" style="fill-rule:evenodd;clip-rule:evenodd;stroke-linecap:round;stroke-linejoin:round;stroke-miterlimit:1.5;">
    <g transform="matrix(1,0,0,1,-858.616,-293.847)">
        <g transform="matrix(0.965625,0,0,0.965625,66.3361,35.2637)">
            <path d="M1042.99,273.752C1042.99,273.752 1155.9,255.01 1199.37,283.978C1279.18,337.164 1405.23,535.894 1521.84,592.864C1635.25,648.269 1496.73,618.167 1936.83,617.193C2329.24,616.325 2220.82,645.171 2348.15,588.541C2475.49,531.911 2580.49,339.852 2663.06,286.023C2706.18,257.916 2816.98,273.752 2816.98,273.752C3311.57,348.483 2832.19,1344.36 2788.2,1501.93C2783.71,1518 2759.91,1546.04 2759.91,1546.04L2722.7,1568.55L2692.05,1644.61C2629.97,1680 2553.17,1721.41 2480.23,1738.58C2406.89,1755.84 2341.44,1757.94 2320.17,1747.69C2320.17,1747.69 2261.15,1727.03 2230.1,1702.08L2169.1,1748.32C2092.85,1767.31 2015.25,1776.61 1930.21,1777.98C1845.02,1776.61 1768.34,1767.31 1691.96,1748.32L1630.86,1702.08C1599.75,1727.03 1540.64,1747.69 1540.64,1747.69C1519.33,1757.94 1453.77,1755.84 1380.31,1738.58C1307.24,1721.41 1230.32,1680 1168.13,1644.61L1137.43,1568.55L1100.16,1546.04C1100.16,1546.04 1076.32,1518 1071.82,1501.93C1027.76,1344.36 547.574,348.483 1042.99,273.752Z"/>
        </g>
        <path d="M1930.16,1692.11C1854.7,1690.89 1786.77,1682.66 1719.12,1665.83L1664.99,1624.87C1637.44,1646.98 1585.07,1665.28 1585.07,1665.28C1566.19,1674.36 1508.12,1672.49 1443.05,1657.2C1378.32,1642 1310.18,1605.31 1255.1,1573.97L1227.9,1506.59L1194.88,1486.65C1194.88,1486.65 1173.76,1461.81 1169.78,1447.58C1130.74,1308 705.386,425.821 1144.24,359.623C1144.24,359.623 1162.65,358.688 1186.74,377.624C1226.63,408.986 1347.96,536.572 1346.88,534.413L1475.78,649.678C1475.78,649.678 1508.19,689.757 1597.42,692.041C1682.53,694.219 1943.34,691.415 1943.34,691.415C1943.34,691.415 2178.31,694.219 2263.27,692.041C2352.35,689.757 2384.7,649.678 2384.7,649.678L2513.39,534.413C2512.31,536.572 2633.44,408.986 2673.26,377.624C2697.31,358.688 2715.69,359.623 2715.69,359.623C3153.81,425.821 2729.16,1308 2690.19,1447.58C2686.22,1461.81 2665.14,1486.65 2665.14,1486.65L2632.17,1506.59L2605.02,1573.97C2550.03,1605.31 2482,1642 2417.38,1657.2C2352.42,1672.49 2294.44,1674.36 2275.6,1665.28C2275.6,1665.28 2223.32,1646.98 2195.81,1624.87L2141.78,1665.83C2074.23,1682.66 2005.49,1690.89 1930.16,1692.11Z" style="fill:white;stroke:white;stroke-width:1px;"/>
    </g>
</svg>
