<?xml version="1.0" encoding="UTF-8" standalone="no"?>
<!DOCTYPE svg PUBLIC "-//W3C//DTD SVG 1.1//EN" "http://www.w3.org/Graphics/SVG/1.1/DTD/svg11.dtd">
<svg width="100%" height="100%" viewBox="0 0 1967 1334" version="1.1" xmlns="http://www.w3.org/2000/svg" xmlns:xlink="http://www.w3.org/1999/xlink" xml:space="preserve" xmlns:serif="http://www.serif.com/" style="fill-rule:evenodd;clip-rule:evenodd;stroke-linecap:round;stroke-linejoin:round;stroke-miterlimit:1.5;">
    <g transform="matrix(1,0,0,1,-946.637,-359.115)">
        <path d="M1930.16,1692.11C1854.7,1690.89 1786.77,1682.66 1719.12,1665.83L1664.99,1624.87C1637.44,1646.98 1585.07,1665.28 1585.07,1665.28C1566.19,1674.36 1508.12,1672.49 1443.05,1657.2C1378.32,1642 1310.18,1605.31 1255.1,1573.97L1227.9,1506.59L1194.88,1486.65C1194.88,1486.65 1173.76,1461.81 1169.78,1447.58C1130.74,1308 705.386,425.821 1144.24,359.623C1144.24,359.623 1162.65,358.688 1186.74,377.624C1226.63,408.986 1347.96,536.572 1346.88,534.413L1475.78,649.678C1475.78,649.678 1508.19,689.757 1597.42,692.041C1682.53,694.219 1943.34,691.415 1943.34,691.415C1943.34,691.415 2178.31,694.219 2263.27,692.041C2352.35,689.757 2384.7,649.678 2384.7,649.678L2513.39,534.413C2512.31,536.572 2633.44,408.986 2673.26,377.624C2697.31,358.688 2715.69,359.623 2715.69,359.623C3153.81,425.821 2729.16,1308 2690.19,1447.58C2686.22,1461.81 2665.14,1486.65 2665.14,1486.65L2632.17,1506.59L2605.02,1573.97C2550.03,1605.31 2482,1642 2417.38,1657.2C2352.42,1672.49 2294.44,1674.36 2275.6,1665.28C2275.6,1665.28 2223.32,1646.98 2195.81,1624.87L2141.78,1665.83C2074.23,1682.66 2005.49,1690.89 1930.16,1692.11ZM1093.27,784.816C1063.57,784.816 1050.32,805.727 1050.32,834.597C1050.32,863.466 1083.02,890.948 1112.73,890.948C1142.44,890.948 1150.63,871.553 1150.63,842.683C1150.63,813.813 1122.98,784.816 1093.27,784.816ZM1181.63,645.707C1148.5,645.707 1128.28,665.851 1128.28,696.142C1128.28,726.432 1151.54,755.674 1184.66,755.674C1217.78,755.674 1238.81,739.37 1238.81,709.08C1238.81,678.789 1214.75,645.707 1181.63,645.707ZM2291.72,1310.96C2275.41,1489.16 2415.12,1501.18 2476.57,1489.21C2561.66,1472.63 2712.37,1310.19 2600.61,1157.39C2414.77,1174.3 2319.19,1256.13 2291.72,1310.96ZM1758.19,1543.39C1965.01,1531.55 2058.55,1542.57 2088.86,1545.37C2120.94,1548.33 2117.49,1542.9 2117.49,1542.9C2063.35,1496.6 1937.86,1469.15 1856.9,1464.92C1765.68,1460.15 1725.61,1471.83 1719.69,1509.34C1713.77,1546.85 1758.19,1543.39 1758.19,1543.39ZM1334.13,760.071C1298.18,760.071 1283.6,788.128 1283.6,818.309C1283.6,848.491 1323.05,875.363 1359.01,875.363C1394.97,875.363 1406.79,848.886 1406.79,818.704C1406.79,788.523 1370.09,760.071 1334.13,760.071ZM2617.12,982.812C2622.24,982.367 2625.74,978.683 2627.85,972.226L2652.43,861.973C2653.55,860.073 2655.06,859.028 2656.89,858.668L2767.26,860.638C2774.13,860.696 2779.94,856.423 2784.43,846.827L2798.55,786.516C2798.48,777.217 2795.03,770.881 2786.39,769.102L2683.49,760.737C2681.06,760.266 2679.93,758.702 2680.12,756.046L2706.16,655.096C2706.46,645.605 2702.31,638.629 2692.79,634.689L2623.13,626.479C2615.83,628.532 2610.24,633.075 2607.64,641.96L2579.66,747.809C2578.29,749.912 2576.25,750.512 2573.79,750.155L2455.81,743.118C2447.21,742.241 2441.01,744.455 2438.22,751.093L2416.87,825.919C2415.05,838.997 2419.83,845.479 2428.6,847.967L2547.54,854.018C2549.63,855.415 2550.15,857.242 2549.23,859.46L2522.78,955.678C2523.62,967.969 2529.37,976.709 2539.81,982.062L2617.12,982.812ZM1577.17,1310.96C1549.7,1256.13 1454.11,1174.3 1268.28,1157.39C1156.52,1310.19 1307.22,1472.63 1392.31,1489.21C1453.76,1501.18 1593.47,1489.16 1577.17,1310.96ZM1240.71,901.177C1208.16,901.177 1191.11,917.394 1191.11,948.311C1191.11,979.228 1224.94,1009.76 1257.5,1009.76C1290.05,1009.76 1303.64,997.983 1303.64,967.066C1303.64,936.149 1273.27,901.177 1240.71,901.177Z" style="fill:white;stroke:white;stroke-width:1px;"/>
    </g>
</svg>
